<?xml version="1.0" encoding="UTF-8" standalone="no"?>
<!-- Created with Inkscape (http://www.inkscape.org/) -->

<svg
   xmlns:dc="http://purl.org/dc/elements/1.1/"
   xmlns:cc="http://creativecommons.org/ns#"
   xmlns:rdf="http://www.w3.org/1999/02/22-rdf-syntax-ns#"
   xmlns:svg="http://www.w3.org/2000/svg"
   xmlns="http://www.w3.org/2000/svg"
   xmlns:sodipodi="http://sodipodi.sourceforge.net/DTD/sodipodi-0.dtd"
   xmlns:inkscape="http://www.inkscape.org/namespaces/inkscape"
   width="22.860001mm"
   height="22.860001mm"
   viewBox="0 0 81.000002 81.000002"
   id="svg4185"
   version="1.1"
   inkscape:version="0.91 r13725"
   sodipodi:docname="2nd_iter_box.svg">
  <defs
     id="defs4187">
    <marker
       inkscape:stockid="Arrow1Lend"
       orient="auto"
       refY="0.0"
       refX="0.0"
       id="Arrow1Lend"
       style="overflow:visible;"
       inkscape:isstock="true">
      <path
         id="path4799"
         d="M 0.0,0.0 L 5.0,-5.0 L -12.5,0.0 L 5.0,5.0 L 0.0,0.0 z "
         style="fill-rule:evenodd;stroke:#0e11ff;stroke-width:1pt;stroke-opacity:1;fill:#0e11ff;fill-opacity:1"
         transform="scale(0.8) rotate(180) translate(12.5,0)" />
    </marker>
  </defs>
  <sodipodi:namedview
     id="base"
     pagecolor="#ffffff"
     bordercolor="#666666"
     borderopacity="1.0"
     inkscape:pageopacity="0.0"
     inkscape:pageshadow="2"
     inkscape:zoom="2.8284271"
     inkscape:cx="50.312447"
     inkscape:cy="24.349663"
     inkscape:document-units="px"
     inkscape:current-layer="layer1"
     showgrid="true"
     fit-margin-top="0"
     fit-margin-left="0"
     fit-margin-right="0"
     fit-margin-bottom="0"
     inkscape:window-width="1280"
     inkscape:window-height="786"
     inkscape:window-x="0"
     inkscape:window-y="14"
     inkscape:window-maximized="0">
    <inkscape:grid
       type="xygrid"
       id="grid4788" />
  </sodipodi:namedview>
  <metadata
     id="metadata4190">
    <rdf:RDF>
      <cc:Work
         rdf:about="">
        <dc:format>image/svg+xml</dc:format>
        <dc:type
           rdf:resource="http://purl.org/dc/dcmitype/StillImage" />
        <dc:title />
      </cc:Work>
    </rdf:RDF>
  </metadata>
  <g
     inkscape:label="Layer 1"
     inkscape:groupmode="layer"
     id="layer1"
     transform="translate(-108.07143,-169.00506)">
    <rect
       style="fill:#8fff79;fill-opacity:1;fill-rule:nonzero;stroke:none;stroke-width:1;stroke-linecap:butt;stroke-miterlimit:4;stroke-dasharray:none;stroke-dashoffset:0;stroke-opacity:1"
       id="rect5107"
       width="20"
       height="20"
       x="168.07143"
       y="230.00507" />
    <rect
       style="fill:#8fff79;fill-opacity:1;fill-rule:nonzero;stroke:none;stroke-width:1;stroke-linecap:butt;stroke-miterlimit:4;stroke-dasharray:none;stroke-dashoffset:0;stroke-opacity:1"
       id="rect5090"
       width="20"
       height="20"
       x="108.07143"
       y="230.00507"
       ry="0" />
    <path
       style="fill:none;fill-rule:evenodd;stroke:#000000;stroke-width:1px;stroke-linecap:butt;stroke-linejoin:miter;stroke-opacity:1"
       d="m 108.57143,169.50506 0,80 80,0 0,-80 z"
       id="path4140"
       inkscape:connector-curvature="0" />
    <path
       style="fill:none;fill-rule:evenodd;stroke:#979797;stroke-width:1px;stroke-linecap:butt;stroke-linejoin:miter;stroke-opacity:1"
       d="m 128.57143,169.50506 0,80"
       id="path4143"
       inkscape:connector-curvature="0" />
    <path
       style="fill:none;fill-rule:evenodd;stroke:#979797;stroke-width:1px;stroke-linecap:butt;stroke-linejoin:miter;stroke-opacity:1"
       d="m 148.57143,169.50506 0,80"
       id="path4145"
       inkscape:connector-curvature="0" />
    <path
       style="fill:none;fill-rule:evenodd;stroke:#979797;stroke-width:1px;stroke-linecap:butt;stroke-linejoin:miter;stroke-opacity:1"
       d="m 168.57143,169.50506 0,80"
       id="path4147"
       inkscape:connector-curvature="0" />
    <path
       style="fill:none;fill-rule:evenodd;stroke:#979797;stroke-width:1px;stroke-linecap:butt;stroke-linejoin:miter;stroke-opacity:1"
       d="m 108.57143,189.50506 80,0"
       id="path4149"
       inkscape:connector-curvature="0" />
    <path
       style="fill:none;fill-rule:evenodd;stroke:#979797;stroke-width:1px;stroke-linecap:butt;stroke-linejoin:miter;stroke-opacity:1"
       d="m 108.57143,209.50506 80,0"
       id="path4151"
       inkscape:connector-curvature="0" />
    <path
       style="fill:none;fill-rule:evenodd;stroke:#979797;stroke-width:1px;stroke-linecap:butt;stroke-linejoin:miter;stroke-opacity:1"
       d="m 108.57143,229.50506 80,0"
       id="path4153"
       inkscape:connector-curvature="0" />
    <path
       style="fill:none;fill-rule:evenodd;stroke:#0e11ff;stroke-width:1px;stroke-linecap:butt;stroke-linejoin:miter;stroke-opacity:1;marker-end:url(#Arrow1Lend)"
       d="m 118.07143,240.00506 60,0"
       id="path4790"
       inkscape:connector-curvature="0" />
    <g
       transform="translate(132.65721,95.645409)"
       style="font-style:normal;font-variant:normal;font-weight:normal;font-stretch:normal;font-size:20px;line-height:125%;font-family:'Latin Modern Roman';-inkscape-font-specification:'Latin Modern Roman, ';letter-spacing:0px;word-spacing:0px;fill:#000000;fill-opacity:1;stroke:none;stroke-width:1px;stroke-linecap:butt;stroke-linejoin:miter;stroke-opacity:1"
       id="flowRoot5109">
      <path
         d="m 8.98,107.40356 -0.5,0 c -0.1,0.6 -0.24,1.48 -0.44,1.78 -0.14,0.16 -1.46,0.16 -1.9,0.16 l -3.6,0 2.12,-2.06 c 3.12,-2.76 4.32,-3.84 4.32,-5.84 0,-2.280003 -1.8,-3.880003 -4.24,-3.880003 -2.26,0 -3.74,1.84 -3.74,3.620003 0,1.12 1,1.12 1.06,1.12 0.34,0 1.04,-0.24 1.04,-1.06 0,-0.52 -0.36,-1.04 -1.06,-1.04 -0.16,0 -0.2,0 -0.26,0.02 0.46,-1.300003 1.54,-2.040003 2.7,-2.040003 1.82,0 2.68,1.62 2.68,3.260003 0,1.6 -1,3.18 -2.1,4.42 l -3.84,4.28 c -0.22,0.22 -0.22,0.26 -0.22,0.74 l 7.42,0 0.56,-3.48 z"
         style=""
         id="path4216" />
      <path
         d="m 20.7,110.88356 0,-0.62 c -1.04,0 -1.54,0 -1.56,-0.6 l 0,-3.82 c 0,-1.72 0,-2.34 -0.62,-3.06 -0.28,-0.34 -0.94,-0.74 -2.1,-0.74 -1.46,0 -2.4,0.86 -2.96,2.1 l 0,-2.1 -2.82,0.22 0,0.62 c 1.4,0 1.56,0.14 1.56,1.12 l 0,5.36 c 0,0.9 -0.22,0.9 -1.56,0.9 l 0,0.62 2.26,-0.06 2.24,0.06 0,-0.62 c -1.34,0 -1.56,0 -1.56,-0.9 l 0,-3.68 c 0,-2.08 1.42,-3.2 2.7,-3.2 1.26,0 1.48,1.08 1.48,2.22 l 0,4.66 c 0,0.9 -0.22,0.9 -1.56,0.9 l 0,0.62 2.26,-0.06 2.24,0.06 z"
         style=""
         id="path4218" />
      <path
         d="m 31.672812,110.88356 0,-0.62 c -1.4,0 -1.56,-0.14 -1.56,-1.12 l 0,-12.140003 -2.879999,0.22 0,0.62 c 1.399999,0 1.559999,0.14 1.559999,1.12 l 0,4.320003 c -0.58,-0.72 -1.44,-1.24 -2.52,-1.24 -2.36,0 -4.46,1.96 -4.46,4.54 0,2.54 1.96,4.52 4.240001,4.52 1.279999,0 2.18,-0.68 2.68,-1.32 l 0,1.32 2.939999,-0.22 z m -2.939999,-2.36 c 0,0.36 0,0.4 -0.220001,0.74 -0.6,0.96 -1.5,1.4 -2.36,1.4 -0.9,0 -1.62,-0.52 -2.099999,-1.28 -0.520001,-0.82 -0.580001,-1.96 -0.580001,-2.78 0,-0.74 0.04,-1.94 0.62,-2.84 0.42,-0.62 1.18,-1.28 2.26,-1.28 0.700001,0 1.540001,0.3 2.16,1.2 0.220001,0.34 0.220001,0.38 0.220001,0.74 l 0,4.1 z"
         style=""
         id="path4220" />
    </g>
  </g>
</svg>
