<?xml version="1.0" encoding="UTF-8" standalone="no"?>
<!-- Created with Inkscape (http://www.inkscape.org/) -->

<svg
   xmlns:dc="http://purl.org/dc/elements/1.1/"
   xmlns:cc="http://creativecommons.org/ns#"
   xmlns:rdf="http://www.w3.org/1999/02/22-rdf-syntax-ns#"
   xmlns:svg="http://www.w3.org/2000/svg"
   xmlns="http://www.w3.org/2000/svg"
   xmlns:sodipodi="http://sodipodi.sourceforge.net/DTD/sodipodi-0.dtd"
   xmlns:inkscape="http://www.inkscape.org/namespaces/inkscape"
   width="45.437778mm"
   height="45.437778mm"
   viewBox="0 0 161 161"
   id="svg5211"
   version="1.1"
   inkscape:version="0.91 r13725"
   sodipodi:docname="3rd_iter_box.svg">
  <defs
     id="defs5213">
    <marker
       inkscape:stockid="Arrow1Lend"
       orient="auto"
       refY="0.0"
       refX="0.0"
       id="Arrow1Lend"
       style="overflow:visible;"
       inkscape:isstock="true">
      <path
         id="path4799"
         d="M 0.0,0.0 L 5.0,-5.0 L -12.5,0.0 L 5.0,5.0 L 0.0,0.0 z "
         style="fill-rule:evenodd;stroke:#0d13ff;stroke-width:1pt;stroke-opacity:1;fill:#0d13ff;fill-opacity:1"
         transform="scale(0.8) rotate(180) translate(12.5,0)" />
    </marker>
    <marker
       inkscape:isstock="true"
       style="overflow:visible"
       id="marker7137"
       refX="0.0"
       refY="0.0"
       orient="auto"
       inkscape:stockid="DotS">
      <path
         transform="scale(0.2) translate(7.4, 1)"
         style="fill-rule:evenodd;stroke:#dc0000;stroke-width:1pt;stroke-opacity:1;fill:#dc0000;fill-opacity:1"
         d="M -2.5,-1.0 C -2.5,1.7600000 -4.7400000,4.0 -7.5,4.0 C -10.260000,4.0 -12.5,1.7600000 -12.5,-1.0 C -12.5,-3.7600000 -10.260000,-6.0 -7.5,-6.0 C -4.7400000,-6.0 -2.5,-3.7600000 -2.5,-1.0 z "
         id="path7139" />
    </marker>
    <marker
       inkscape:isstock="true"
       style="overflow:visible"
       id="marker7055"
       refX="0.0"
       refY="0.0"
       orient="auto"
       inkscape:stockid="DotS">
      <path
         transform="scale(0.2) translate(7.4, 1)"
         style="fill-rule:evenodd;stroke:#dc0000;stroke-width:1pt;stroke-opacity:1;fill:#dc0000;fill-opacity:1"
         d="M -2.5,-1.0 C -2.5,1.7600000 -4.7400000,4.0 -7.5,4.0 C -10.260000,4.0 -12.5,1.7600000 -12.5,-1.0 C -12.5,-3.7600000 -10.260000,-6.0 -7.5,-6.0 C -4.7400000,-6.0 -2.5,-3.7600000 -2.5,-1.0 z "
         id="path7057" />
    </marker>
    <marker
       inkscape:isstock="true"
       style="overflow:visible"
       id="marker6909"
       refX="0.0"
       refY="0.0"
       orient="auto"
       inkscape:stockid="DotS">
      <path
         transform="scale(0.2) translate(7.4, 1)"
         style="fill-rule:evenodd;stroke:#dc0000;stroke-width:1pt;stroke-opacity:1;fill:#dc0000;fill-opacity:1"
         d="M -2.5,-1.0 C -2.5,1.7600000 -4.7400000,4.0 -7.5,4.0 C -10.260000,4.0 -12.5,1.7600000 -12.5,-1.0 C -12.5,-3.7600000 -10.260000,-6.0 -7.5,-6.0 C -4.7400000,-6.0 -2.5,-3.7600000 -2.5,-1.0 z "
         id="path6911" />
    </marker>
    <marker
       inkscape:isstock="true"
       style="overflow:visible"
       id="marker6899"
       refX="0.0"
       refY="0.0"
       orient="auto"
       inkscape:stockid="DotS">
      <path
         transform="scale(0.2) translate(7.4, 1)"
         style="fill-rule:evenodd;stroke:#dc0000;stroke-width:1pt;stroke-opacity:1;fill:#dc0000;fill-opacity:1"
         d="M -2.5,-1.0 C -2.5,1.7600000 -4.7400000,4.0 -7.5,4.0 C -10.260000,4.0 -12.5,1.7600000 -12.5,-1.0 C -12.5,-3.7600000 -10.260000,-6.0 -7.5,-6.0 C -4.7400000,-6.0 -2.5,-3.7600000 -2.5,-1.0 z "
         id="path6901" />
    </marker>
    <marker
       inkscape:isstock="true"
       style="overflow:visible"
       id="marker6779"
       refX="0.0"
       refY="0.0"
       orient="auto"
       inkscape:stockid="DotM">
      <path
         transform="scale(0.4) translate(7.4, 1)"
         style="fill-rule:evenodd;stroke:#dc0000;stroke-width:1pt;stroke-opacity:1;fill:#dc0000;fill-opacity:1"
         d="M -2.5,-1.0 C -2.5,1.7600000 -4.7400000,4.0 -7.5,4.0 C -10.260000,4.0 -12.5,1.7600000 -12.5,-1.0 C -12.5,-3.7600000 -10.260000,-6.0 -7.5,-6.0 C -4.7400000,-6.0 -2.5,-3.7600000 -2.5,-1.0 z "
         id="path6781" />
    </marker>
    <marker
       inkscape:isstock="true"
       style="overflow:visible"
       id="marker6733"
       refX="0.0"
       refY="0.0"
       orient="auto"
       inkscape:stockid="DotM">
      <path
         transform="scale(0.4) translate(7.4, 1)"
         style="fill-rule:evenodd;stroke:#dc0000;stroke-width:1pt;stroke-opacity:1;fill:#dc0000;fill-opacity:1"
         d="M -2.5,-1.0 C -2.5,1.7600000 -4.7400000,4.0 -7.5,4.0 C -10.260000,4.0 -12.5,1.7600000 -12.5,-1.0 C -12.5,-3.7600000 -10.260000,-6.0 -7.5,-6.0 C -4.7400000,-6.0 -2.5,-3.7600000 -2.5,-1.0 z "
         id="path6735" />
    </marker>
    <marker
       inkscape:isstock="true"
       style="overflow:visible;"
       id="marker5908"
       refX="0.0"
       refY="0.0"
       orient="auto"
       inkscape:stockid="Arrow1Lend">
      <path
         transform="scale(0.8) rotate(180) translate(12.5,0)"
         style="fill-rule:evenodd;stroke:#0d13ff;stroke-width:1pt;stroke-opacity:1;fill:#0d13ff;fill-opacity:1"
         d="M 0.0,0.0 L 5.0,-5.0 L -12.5,0.0 L 5.0,5.0 L 0.0,0.0 z "
         id="path5910" />
    </marker>
    <marker
       inkscape:isstock="true"
       style="overflow:visible;"
       id="marker5880"
       refX="0.0"
       refY="0.0"
       orient="auto"
       inkscape:stockid="Arrow1Lend">
      <path
         transform="scale(0.8) rotate(180) translate(12.5,0)"
         style="fill-rule:evenodd;stroke:#0d13ff;stroke-width:1pt;stroke-opacity:1;fill:#0d13ff;fill-opacity:1"
         d="M 0.0,0.0 L 5.0,-5.0 L -12.5,0.0 L 5.0,5.0 L 0.0,0.0 z "
         id="path5882" />
    </marker>
    <marker
       inkscape:isstock="true"
       style="overflow:visible;"
       id="marker5858"
       refX="0.0"
       refY="0.0"
       orient="auto"
       inkscape:stockid="Arrow1Lend">
      <path
         transform="scale(0.8) rotate(180) translate(12.5,0)"
         style="fill-rule:evenodd;stroke:#0d13ff;stroke-width:1pt;stroke-opacity:1;fill:#0d13ff;fill-opacity:1"
         d="M 0.0,0.0 L 5.0,-5.0 L -12.5,0.0 L 5.0,5.0 L 0.0,0.0 z "
         id="path5860" />
    </marker>
  </defs>
  <sodipodi:namedview
     id="base"
     pagecolor="#ffffff"
     bordercolor="#666666"
     borderopacity="1.0"
     inkscape:pageopacity="0.0"
     inkscape:pageshadow="2"
     inkscape:zoom="2.8"
     inkscape:cx="94.467539"
     inkscape:cy="76.484605"
     inkscape:document-units="px"
     inkscape:current-layer="layer5"
     showgrid="true"
     fit-margin-top="0"
     fit-margin-left="0"
     fit-margin-right="0"
     fit-margin-bottom="0"
     inkscape:window-width="1280"
     inkscape:window-height="786"
     inkscape:window-x="0"
     inkscape:window-y="14"
     inkscape:window-maximized="0">
    <inkscape:grid
       type="xygrid"
       id="grid5793" />
  </sodipodi:namedview>
  <metadata
     id="metadata5216">
    <rdf:RDF>
      <cc:Work
         rdf:about="">
        <dc:format>image/svg+xml</dc:format>
        <dc:type
           rdf:resource="http://purl.org/dc/dcmitype/StillImage" />
        <dc:title />
      </cc:Work>
    </rdf:RDF>
  </metadata>
  <g
     inkscape:groupmode="layer"
     id="layer4"
     inkscape:label="Layer 2">
    <rect
       style="fill:#8fff79;fill-opacity:1;fill-rule:nonzero;stroke:none;stroke-width:1.5;stroke-linecap:butt;stroke-miterlimit:4;stroke-dasharray:none;stroke-dashoffset:0;stroke-opacity:1"
       id="rect7372"
       width="20"
       height="20"
       x="0"
       y="141" />
    <rect
       style="fill:#8fff79;fill-opacity:1;fill-rule:nonzero;stroke:none;stroke-width:1.5;stroke-linecap:butt;stroke-miterlimit:4;stroke-dasharray:none;stroke-dashoffset:0;stroke-opacity:1"
       id="rect7374"
       width="20"
       height="20"
       x="140"
       y="141" />
  </g>
  <g
     inkscape:label="Layer 1"
     inkscape:groupmode="layer"
     id="layer1"
     transform="translate(-185.21428,-451.86221)"
     sodipodi:insensitive="true">
    <rect
       style="display:inline;fill:none;fill-opacity:1;fill-rule:nonzero;stroke:#000000;stroke-width:1;stroke-linecap:butt;stroke-miterlimit:4;stroke-dasharray:none;stroke-dashoffset:0;stroke-opacity:1"
       id="rect5172"
       width="160"
       height="160"
       x="185.71428"
       y="452.36221" />
    <path
       style="display:inline;fill:none;fill-rule:evenodd;stroke:#979797;stroke-width:1px;stroke-linecap:butt;stroke-linejoin:miter;stroke-opacity:1"
       d="m 185.71429,472.3622 160,0"
       id="path5156"
       inkscape:connector-curvature="0" />
    <path
       style="display:inline;fill:none;fill-rule:evenodd;stroke:#979797;stroke-width:1px;stroke-linecap:butt;stroke-linejoin:miter;stroke-opacity:1"
       d="m 185.71429,492.3622 160,0"
       id="path5158"
       inkscape:connector-curvature="0" />
    <path
       style="display:inline;fill:none;fill-rule:evenodd;stroke:#979797;stroke-width:1px;stroke-linecap:butt;stroke-linejoin:miter;stroke-opacity:1"
       d="m 185.71429,512.3622 160,0"
       id="path5160"
       inkscape:connector-curvature="0" />
    <path
       style="display:inline;fill:none;fill-rule:evenodd;stroke:#979797;stroke-width:1px;stroke-linecap:butt;stroke-linejoin:miter;stroke-opacity:1"
       d="m 185.71429,532.3622 160,0"
       id="path5162"
       inkscape:connector-curvature="0" />
    <path
       style="display:inline;fill:none;fill-rule:evenodd;stroke:#979797;stroke-width:1px;stroke-linecap:butt;stroke-linejoin:miter;stroke-opacity:1"
       d="m 185.71429,552.36219 160,0"
       id="path5164"
       inkscape:connector-curvature="0" />
    <path
       style="display:inline;fill:none;fill-rule:evenodd;stroke:#979797;stroke-width:1px;stroke-linecap:butt;stroke-linejoin:miter;stroke-opacity:1"
       d="m 185.71429,572.36219 160,0"
       id="path5166"
       inkscape:connector-curvature="0" />
    <path
       style="display:inline;fill:none;fill-rule:evenodd;stroke:#979797;stroke-width:1px;stroke-linecap:butt;stroke-linejoin:miter;stroke-opacity:1"
       d="m 185.71429,592.36219 160,0"
       id="path5168"
       inkscape:connector-curvature="0" />
    <path
       style="display:inline;fill:none;fill-rule:evenodd;stroke:#979797;stroke-width:1px;stroke-linecap:butt;stroke-linejoin:miter;stroke-opacity:1"
       d="m 205.71429,452.3622 0,159.99999"
       id="path5174"
       inkscape:connector-curvature="0" />
    <path
       style="display:inline;fill:none;fill-rule:evenodd;stroke:#979797;stroke-width:1px;stroke-linecap:butt;stroke-linejoin:miter;stroke-opacity:1"
       d="m 225.71429,452.3622 0,159.99999"
       id="path5176"
       inkscape:connector-curvature="0" />
    <path
       style="display:inline;fill:none;fill-rule:evenodd;stroke:#979797;stroke-width:1px;stroke-linecap:butt;stroke-linejoin:miter;stroke-opacity:1"
       d="m 245.71429,452.3622 0,159.99999"
       id="path5178"
       inkscape:connector-curvature="0" />
    <path
       style="display:inline;fill:none;fill-rule:evenodd;stroke:#979797;stroke-width:1px;stroke-linecap:butt;stroke-linejoin:miter;stroke-opacity:1"
       d="m 265.71429,452.3622 0,159.99999"
       id="path5180"
       inkscape:connector-curvature="0" />
    <path
       style="display:inline;fill:none;fill-rule:evenodd;stroke:#979797;stroke-width:1px;stroke-linecap:butt;stroke-linejoin:miter;stroke-opacity:1"
       d="m 285.71429,452.3622 0,159.99999"
       id="path5182"
       inkscape:connector-curvature="0" />
    <path
       style="display:inline;fill:none;fill-rule:evenodd;stroke:#979797;stroke-width:1px;stroke-linecap:butt;stroke-linejoin:miter;stroke-opacity:1"
       d="m 305.71429,452.3622 0,159.99999"
       id="path5184"
       inkscape:connector-curvature="0" />
    <path
       style="display:inline;fill:none;fill-rule:evenodd;stroke:#979797;stroke-width:1px;stroke-linecap:butt;stroke-linejoin:miter;stroke-opacity:1"
       d="m 325.71429,452.3622 0,159.99999"
       id="path5186"
       inkscape:connector-curvature="0" />
  </g>
  <g
     inkscape:groupmode="layer"
     id="layer5"
     inkscape:label="Layer 3">
    <path
       style="fill:none;fill-rule:evenodd;stroke:#0d13ff;stroke-width:1px;stroke-linecap:butt;stroke-linejoin:miter;stroke-opacity:1;marker-end:url(#Arrow1Lend)"
       d="m 10,151 140,0"
       id="path7376"
       inkscape:connector-curvature="0" />
    <g
       transform="translate(52.800066,-55.145364)"
       style="font-style:normal;font-variant:normal;font-weight:normal;font-stretch:normal;font-size:40px;line-height:125%;font-family:'Latin Modern Roman';-inkscape-font-specification:'Latin Modern Roman, ';letter-spacing:0px;word-spacing:0px;fill:#000000;fill-opacity:1;stroke:none;stroke-width:1px;stroke-linecap:butt;stroke-linejoin:miter;stroke-opacity:1"
       id="flowRoot5109">
      <path
         d="m 18.28,123.92711 c 0,-3.28 -2.52,-6.4 -6.68,-7.24 3.28,-1.08 5.6,-3.88 5.6,-7.04 0,-3.28 -3.52,-5.52 -7.36,-5.52 -4.04,0 -7.08,2.4 -7.08,5.44 0,1.32 0.88,2.08 2.04,2.08 1.24,0 2.04,-0.88 2.04,-2.04 0,-2 -1.88,-2 -2.48,-2 1.24,-1.96 3.88,-2.48 5.32,-2.48 1.64,0 3.84,0.88 3.84,4.48 0,0.48 -0.08,2.8 -1.12,4.56 -1.2,1.92 -2.56,2.04 -3.56,2.08 -0.32,0.04 -1.28,0.12 -1.56,0.12 -0.32,0.04 -0.6,0.08 -0.6,0.48 0,0.44 0.28,0.44 0.96,0.44 l 1.76,0 c 3.28,0 4.76,2.72 4.76,6.64 0,5.44 -2.76,6.6 -4.52,6.6 -1.72,0 -4.72,-0.68 -6.12,-3.04 1.4,0.2 2.64,-0.68 2.64,-2.2 0,-1.44 -1.08,-2.24 -2.24,-2.24 -0.96,0 -2.24,0.56 -2.24,2.32 0,3.64 3.72,6.28 8.08,6.28 4.88,0 8.52,-3.64 8.52,-7.72 z"
         style=""
         id="path5175" />
      <path
         d="m 34.56,115.52711 c 0,-1.28 -1.24,-2.44 -2.96,-2.44 -2.92,0 -4.36,2.68 -4.92,4.4 l 0,-4.4 -5.56,0.44 0,1.24 c 2.8,0 3.12,0.28 3.12,2.24 l 0,10.72 c 0,1.8 -0.44,1.8 -3.12,1.8 l 0,1.24 4.56,-0.12 c 1.6,0 3.48,0 5.08,0.12 l 0,-1.24 -0.84,0 c -2.96,0 -3.04,-0.44 -3.04,-1.88 l 0,-6.16 c 0,-3.96 1.68,-7.52 4.72,-7.52 0.28,0 0.36,0 0.44,0.04 -0.12,0.04 -0.92,0.52 -0.92,1.56 0,1.12 0.84,1.72 1.72,1.72 0.72,0 1.72,-0.48 1.72,-1.76 z"
         style=""
         id="path5177" />
      <path
         d="m 56.783125,130.76711 0,-1.24 c -2.8,0 -3.12,-0.28 -3.12,-2.24 l 0,-24.28 -5.76,0.44 0,1.24 c 2.8,0 3.12,0.28 3.12,2.24 l 0,8.64 c -1.16,-1.44 -2.88,-2.48 -5.04,-2.48 -4.72,0 -8.92,3.92 -8.92,9.08 0,5.08 3.92,9.04 8.48,9.04 2.56,0 4.36,-1.36 5.36,-2.64 l 0,2.64 5.88,-0.44 z m -5.88,-4.72 c 0,0.72 0,0.8 -0.44,1.48 -1.2,1.92 -3,2.8 -4.72,2.8 -1.8,0 -3.24,-1.04 -4.2,-2.56 -1.04,-1.64 -1.16,-3.92 -1.16,-5.56 0,-1.48 0.08,-3.88 1.24,-5.68 0.84,-1.24 2.36,-2.56 4.52,-2.56 1.4,0 3.08,0.6 4.32,2.4 0.44,0.68 0.44,0.76 0.44,1.48 l 0,8.2 z"
         style=""
         id="path5179" />
    </g>
  </g>
</svg>
